<svg xmlns="http://www.w3.org/2000/svg" version="1.1" xmlns:xlink="http://www.w3.org/1999/xlink" width="512" height="512" x="0" y="0" viewBox="0 0 32 32" style="enable-background:new 0 0 512 512" xml:space="preserve" class=""><g transform="matrix(0.6999999999999994,0,0,0.6999999999999994,4.800000000000001,4.800000000000001)"><path d="M30.5 1h-29a1.5 1.5 0 0 0 0 3h29a1.5 1.5 0 0 0 0-3zM30.5 14h-29a1.5 1.5 0 0 0 0 3h29a1.5 1.5 0 0 0 0-3zM30.5 28h-29a1.5 1.5 0 0 0 0 3h29a1.5 1.5 0 0 0 0-3z" fill="#FFFFFF" opacity="1" data-original="#000000" class=""></path></g></svg>